<svg width="24" height="24" viewBox="0 0 24 24" fill="none" xmlns="http://www.w3.org/2000/svg">
<path d="M8.75012 6C8.75012 4.20507 10.2052 2.75 12.0001 2.75C13.795 2.75 15.2501 4.20507 15.2501 6V9.23835L21.5509 5.60059L22.3009 6.89962L9.62481 14.2182C9.6248 14.2182 9.62481 14.2182 9.62481 14.2182L7.86453 15.2345C7.86454 15.2345 7.86452 15.2345 7.86453 15.2345L6.55534 15.9904C6.55534 15.9904 6.55535 15.9904 6.55534 15.9904L2.38232 18.3996L1.63232 17.1006L5.80745 14.6901C5.44893 13.8659 5.25012 12.9562 5.25012 12H6.75012C6.75012 12.6828 6.88048 13.3352 7.11767 13.9336L8.88089 12.9156C8.79578 12.6252 8.75012 12.3179 8.75012 12V6Z" fill="#2D2D49" fill-opacity="0.55"/>
<path d="M11.0711 15.1153L15.1624 12.7531C14.8227 14.1849 13.5358 15.25 12.0001 15.25C11.6773 15.25 11.3654 15.2029 11.0711 15.1153Z" fill="#2D2D49" fill-opacity="0.55"/>
<path d="M9.00164 16.31L7.60027 17.1191C8.60364 17.9823 9.8636 18.5555 11.2501 18.7088V22H12.7501V18.7088C16.1251 18.3357 18.7501 15.4744 18.7501 12H17.2501C17.2501 14.8995 14.8996 17.25 12.0001 17.25C10.8854 17.25 9.85173 16.9026 9.00164 16.31Z" fill="#2D2D49" fill-opacity="0.55"/>
</svg>
