<svg width="24" height="24" viewBox="0 0 24 24" fill="none" xmlns="http://www.w3.org/2000/svg">
<path d="M8.75 6C8.75 4.20507 10.2051 2.75 12 2.75C13.7949 2.75 15.25 4.20507 15.25 6V12C15.25 13.7949 13.7949 15.25 12 15.25C10.2051 15.25 8.75 13.7949 8.75 12V6Z" fill="#2D2D49" fill-opacity="0.55"/>
<path d="M6.75 12C6.75 14.8995 9.10051 17.25 12 17.25C14.8995 17.25 17.25 14.8995 17.25 12H18.75C18.75 15.4744 16.125 18.3357 12.75 18.7088V22H11.25V18.7088C7.87504 18.3357 5.25 15.4744 5.25 12H6.75Z" fill="#2D2D49" fill-opacity="0.55"/>
</svg>
