<svg width="24" height="24" viewBox="0 0 24 24" fill="none" xmlns="http://www.w3.org/2000/svg">
<path fill-rule="evenodd" clip-rule="evenodd" d="M12 5C8.13401 5 5 8.13401 5 12C5 15.866 8.13401 19 12 19C15.866 19 19 15.866 19 12C19 11.4477 19.4477 11 20 11C20.5523 11 21 11.4477 21 12C21 16.9706 16.9706 21 12 21C7.02944 21 3 16.9706 3 12C3 7.02944 7.02944 3 12 3C12.5523 3 13 3.44772 13 4C13 4.55228 12.5523 5 12 5Z" fill="url(#paint0_linear)"/>
<defs>
<linearGradient id="paint0_linear" x1="3" y1="3" x2="23.3588" y2="6.25741" gradientUnits="userSpaceOnUse">
<stop stop-color="#5E29FF"/>
<stop offset="1" stop-color="#AC3FFE"/>
</linearGradient>
</defs>
</svg>
