<svg width="24" height="24" viewBox="0 0 24 24" fill="none" xmlns="http://www.w3.org/2000/svg">
<path fill-rule="evenodd" clip-rule="evenodd" d="M4.05 11.4C4.05 7.00935 7.60934 3.45001 12 3.45001C16.3907 3.45001 19.95 7.00935 19.95 11.4V13.6435C20.5484 14.261 20.9168 15.1028 20.9168 16.0307C20.9168 17.9254 19.3808 19.4613 17.4861 19.4613C17.1072 19.4613 16.8 19.1542 16.8 18.7752V13.2861C16.8 12.9072 17.1072 12.6 17.4861 12.6C17.8208 12.6 18.1442 12.6479 18.45 12.7373V11.4C18.45 7.83778 15.5622 4.95001 12 4.95001C8.43776 4.95001 5.55 7.83778 5.55 11.4V12.7241C5.83791 12.6463 6.14073 12.6048 6.45324 12.6048C6.83468 12.6048 7.14389 12.914 7.14389 13.2955V18.8207C7.14389 19.2021 6.83468 19.5113 6.45324 19.5113C4.54607 19.5113 3 17.9652 3 16.0581C3 15.085 3.40246 14.206 4.05 13.5783V11.4Z" fill="black"/>
</svg>
