<svg width="24" height="24" viewBox="0 0 24 24" fill="none" xmlns="http://www.w3.org/2000/svg">
<path fill-rule="evenodd" clip-rule="evenodd" d="M10 10V6.33333C10 6.14924 10.1492 6 10.3333 6H17.6667C17.8508 6 18 6.14924 18 6.33333V13.6667C18 13.8508 17.8508 14 17.6667 14H14V17.6667C14 17.8508 13.8508 18 13.6667 18H6.33333C6.14924 18 6 17.8508 6 17.6667V10.3333C6 10.1492 6.14924 10 6.33333 10H10ZM11 7H17V13H11V7ZM13 14H10.3333C10.1492 14 10 13.8508 10 13.6667V11H7V17H13V14Z" fill="white" fill-opacity="0.9"/>
</svg>
