<svg width="34" height="16" viewBox="0 0 34 16" fill="none" xmlns="http://www.w3.org/2000/svg">
<path d="M0 2C0 0.895431 0.895431 0 2 0H32C33.1046 0 34 0.895431 34 2V14C34 15.1046 33.1046 16 32 16H2C0.89543 16 0 15.1046 0 14V2Z" fill="url(#paint0_linear)"/>
<path d="M6.91 3.6H8.39V9.76H11.39V11H6.91V3.6ZM12.6815 3.6H14.1615V11H12.6815V3.6ZM15.0223 3.6H16.5723L17.5523 7.2C17.6656 7.62 17.7656 8.02 17.8523 8.4C17.9456 8.77333 18.0523 9.17 18.1723 9.59H18.2223C18.3356 9.17 18.4389 8.77333 18.5323 8.4C18.6323 8.02 18.7389 7.62 18.8523 7.2L19.8123 3.6H21.3123L19.0423 11H17.2823L15.0223 3.6ZM22.1639 3.6H26.7039V4.83H23.6439V6.54H26.2439V7.78H23.6439V9.76H26.8139V11H22.1639V3.6Z" fill="white"/>
<defs>
<linearGradient id="paint0_linear" x1="0" y1="8" x2="34" y2="8" gradientUnits="userSpaceOnUse">
<stop stop-color="#25BF87"/>
<stop offset="1" stop-color="#41B2FA"/>
</linearGradient>
</defs>
</svg>
