<svg width="34" height="16" viewBox="0 0 34 16" fill="none" xmlns="http://www.w3.org/2000/svg">
<path d="M0 2C0 0.895431 0.895431 0 2 0H32C33.1046 0 34 0.895431 34 2V14C34 15.1046 33.1046 16 32 16H2C0.89543 16 0 15.1046 0 14V2Z" fill="#8787A1" fill-opacity="0.2"/>
<path d="M6.91 11H11.39V9.76H8.39V3.6H6.91V11ZM12.6815 11H14.1615V3.6H12.6815V11ZM17.2823 11H19.0423L21.3123 3.6H19.8123L18.8523 7.2C18.6223 8.04 18.4523 8.75 18.2223 9.59H18.1723C17.9323 8.75 17.7823 8.04 17.5523 7.2L16.5723 3.6H15.0223L17.2823 11ZM22.1639 11H26.8139V9.76H23.6439V7.78H26.2439V6.54H23.6439V4.83H26.7039V3.6H22.1639V11Z" fill="#6C6B9B" fill-opacity="0.3"/>
</svg>
