<svg width="24" height="24" viewBox="0 0 24 24" fill="none" xmlns="http://www.w3.org/2000/svg">
<path fill-rule="evenodd" clip-rule="evenodd" d="M12 2.40002C13.6575 2.40002 15 3.81718 15 5.56686V12.0011C15 13.7508 13.6575 15.168 12 15.168C10.3425 15.168 9.00001 13.7508 9.00001 12.0011V5.56686C9.00001 3.81718 10.3425 2.40002 12 2.40002ZM6.78762 12.15C6.78762 15.0288 9.12129 17.3624 12 17.3624C14.8787 17.3624 17.2124 15.0288 17.2124 12.15H18.7124C18.7124 15.6037 16.1042 18.4481 12.75 18.821V22.65H11.25V18.821C7.89587 18.4481 5.28762 15.6036 5.28762 12.15H6.78762Z" fill="black"/>
</svg>
