<svg width="24" height="24" viewBox="0 0 24 24" fill="none" xmlns="http://www.w3.org/2000/svg">
<path fill-rule="evenodd" clip-rule="evenodd" d="M15 5.56686C15 3.81718 13.6575 2.40002 12 2.40002C10.3425 2.40002 8.99997 3.81718 8.99997 5.56686V12.0012C8.99997 12.3786 9.06246 12.7407 9.17712 13.0763L7.26036 14.3222C6.95682 13.661 6.78758 12.9253 6.78758 12.15H5.28758C5.28758 13.227 5.5412 14.2447 5.99196 15.1467L2.59123 17.3571L3.40871 18.6148L6.8083 16.4051C7.89014 17.7235 9.46436 18.6225 11.25 18.821V22.65H12.75V18.821C16.1041 18.4481 18.7124 15.6037 18.7124 12.15H17.2124C17.2124 15.0288 14.8787 17.3624 12 17.3624C10.4352 17.3624 9.03141 16.6729 8.07598 15.5811L9.98025 14.3433C10.5132 14.8557 11.2219 15.168 12 15.168C13.6575 15.168 15 13.7508 15 12.0012V11.0805L20.7164 7.36479L19.8989 6.10713L15 9.29145V5.56686Z" fill="black"/>
</svg>
