<svg width="24" height="24" viewBox="0 0 24 24" fill="none" xmlns="http://www.w3.org/2000/svg">
<path fill-rule="evenodd" clip-rule="evenodd" d="M5.63604 5.63602C2.12132 9.15073 2.12132 14.8492 5.63604 18.3639L4.22183 19.7782C-0.0739418 15.4824 -0.0739418 8.51757 4.22183 4.2218L5.63604 5.63602ZM18.364 5.63602L19.7782 4.2218C24.0739 8.51757 24.0739 15.4824 19.7782 19.7782L18.364 18.3639C21.8787 14.8492 21.8787 9.15073 18.364 5.63602ZM12 14C13.1046 14 14 13.1045 14 12C14 10.8954 13.1046 9.99998 12 9.99998C10.8955 9.99998 10 10.8954 10 12C10 13.1045 10.8955 14 12 14ZM8.46447 15.5355C6.51185 13.5829 6.51185 10.4171 8.46447 8.46444L7.05026 7.05023C4.31659 9.7839 4.31659 14.2161 7.05026 16.9497L8.46447 15.5355ZM16.9498 7.05023L15.5355 8.46444C17.4882 10.4171 17.4882 13.5829 15.5355 15.5355L16.9498 16.9497C19.6834 14.2161 19.6834 9.7839 16.9498 7.05023Z" fill="black"/>
</svg>
