<svg width="24" height="24" viewBox="0 0 24 24" fill="none" xmlns="http://www.w3.org/2000/svg">
<path d="M13.3013 3.01312L14.6119 4.96034C15.4258 5.25689 16.1816 5.69065 16.8472 6.24115L19.2077 6.39199L20.5132 8.6332L19.4651 10.7347C19.5375 11.1539 19.5741 11.5809 19.5741 12.0121C19.5741 12.4433 19.5375 12.8702 19.4651 13.2903L20.5132 15.3918L19.2077 17.6322L16.8472 17.783C16.1816 18.3335 15.4258 18.7672 14.6119 19.0638L13.3013 21.011H10.6988L9.38811 19.0638C8.57428 18.7672 7.81841 18.3335 7.15286 17.783L4.79234 17.6322L3.48681 15.3909L4.53498 13.2903C4.46255 12.8711 4.42591 12.4441 4.42591 12.0129C4.42591 11.5817 4.46255 11.1548 4.53498 10.7347L3.48681 8.6332L4.79234 6.39284L7.15286 6.24201C7.72382 5.77076 8.36039 5.38387 9.04298 5.09669L9.38811 4.96119L10.6988 3.01397L13.3013 3.01312ZM12.7048 4.41495H11.3566L10.2173 6.10822L10.0434 6.16702C9.26966 6.42608 8.55724 6.83512 7.94538 7.36858L7.80733 7.48788L5.7553 7.61912L5.08549 8.76955L5.99476 10.5932L5.95811 10.7739C5.87971 11.1659 5.83966 11.5664 5.83966 11.9737C5.83966 12.3802 5.87971 12.7807 5.95896 13.1727L5.99476 13.3542L5.08549 15.1779L5.7553 16.3275L7.80733 16.4587L7.94538 16.578C8.55724 17.1115 9.26966 17.5214 10.0434 17.7796L10.2173 17.8392L11.3566 19.5316H12.7048L13.8441 17.8384L14.018 17.7804C14.7909 17.5214 15.5033 17.1115 16.116 16.5789L16.2532 16.4596L18.3061 16.3275L18.9759 15.177L18.0666 13.3542L18.1024 13.1727C18.1808 12.7807 18.2217 12.3802 18.2217 11.9737C18.2217 11.5672 18.1808 11.1659 18.1024 10.7739L18.0666 10.5924L18.9759 8.7687L18.3061 7.61912L16.2532 7.48788L16.116 7.36858C15.5033 6.83512 14.7909 6.42608 14.018 6.16702L13.8441 6.10822L12.7048 4.41495ZM12 9.1999C13.5535 9.1999 14.8122 10.4586 14.8122 12.0121C14.8122 13.5656 13.5535 14.8242 12 14.8242C10.4465 14.8242 9.18785 13.5656 9.18785 12.0121C9.18785 10.4586 10.4465 9.1999 12 9.1999ZM12.0102 10.4739C11.1819 10.4739 10.5104 11.1454 10.5104 11.9737C10.5104 12.802 11.1819 13.4735 12.0102 13.4735C12.8386 13.4735 13.5101 12.802 13.5101 11.9737C13.5101 11.1454 12.8386 10.4739 12.0102 10.4739Z" fill="black"/>
</svg>
