<svg width="24" height="24" viewBox="0 0 24 24" fill="none" xmlns="http://www.w3.org/2000/svg">
<path fill-rule="evenodd" clip-rule="evenodd" d="M16.5 8C17.8807 8 19 6.88071 19 5.5C19 4.11929 17.8807 3 16.5 3C15.1193 3 14 4.11929 14 5.5C14 5.68119 14.0193 5.85788 14.0559 6.02813L7.16473 10.1348C6.72266 9.74001 6.13936 9.5 5.5 9.5C4.11929 9.5 3 10.6193 3 12C3 13.3807 4.11929 14.5 5.5 14.5C6.13936 14.5 6.72266 14.26 7.16473 13.8652L14.0559 17.9719C14.0193 18.1421 14 18.3188 14 18.5C14 19.8807 15.1193 21 16.5 21C17.8807 21 19 19.8807 19 18.5C19 17.1193 17.8807 16 16.5 16C15.8428 16 15.2448 16.2536 14.7986 16.6683L7.93311 12.5769C7.97685 12.3917 8 12.1986 8 12C8 11.8014 7.97685 11.6083 7.93311 11.4231L14.7986 7.33171C15.2448 7.7464 15.8428 8 16.5 8Z" fill="black"/>
</svg>
