<svg width="24" height="24" viewBox="0 0 24 24" fill="none" xmlns="http://www.w3.org/2000/svg">
<path fill-rule="evenodd" clip-rule="evenodd" d="M5.65258 7.63474C5.65258 6.14074 6.8637 4.92961 8.3577 4.92961C9.8517 4.92961 11.0628 6.14074 11.0628 7.63474C11.0628 9.12873 9.8517 10.3399 8.3577 10.3399C6.8637 10.3399 5.65258 9.12873 5.65258 7.63474ZM8.3577 3.42961C6.03527 3.42961 4.15258 5.31231 4.15258 7.63474C4.15258 8.82782 4.64944 9.90486 5.44755 10.6702C4.15977 11.015 3.22598 11.6025 2.5658 12.3027C1.51932 13.4126 1.25092 14.7106 1.25092 15.4871V17.999L2.00092 17.9999L2.75092 17.9999V15.4871C2.75092 15.0072 2.92674 14.1065 3.65718 13.3317C4.37089 12.5748 5.70762 11.8397 8.22014 11.8397C10.7327 11.8397 12.0694 12.5748 12.7831 13.3317C13.5135 14.1065 13.6894 15.0072 13.6894 15.4871V17.999L14.4394 17.9999L15.1894 17.9999V15.4871C15.1894 14.8181 14.9901 13.7619 14.2656 12.7725C14.9162 12.2479 15.9187 11.8397 17.482 11.8397C19.5367 11.8397 20.6193 12.5453 21.2074 13.2843C21.8234 14.0582 21.9817 14.9765 21.9817 15.4871V17.999L22.7317 17.9999L23.4817 17.9999V15.4871C23.4817 14.7412 23.2651 13.4609 22.3811 12.3502C21.8049 11.6262 20.9768 11.0143 19.8282 10.662C20.3814 10.041 20.7175 9.22246 20.7175 8.32541C20.7175 6.38463 19.1442 4.81131 17.2034 4.81131C15.2627 4.81131 13.6893 6.38463 13.6893 8.32541C13.6893 9.29444 14.0816 10.1719 14.7159 10.8076C14.1172 11.0403 13.617 11.3485 13.2028 11.7054C12.6672 11.3058 12.0082 10.9691 11.2043 10.73C12.0395 9.96144 12.5628 8.8592 12.5628 7.63474C12.5628 5.31231 10.6801 3.42961 8.3577 3.42961ZM15.1893 8.32541C15.1893 7.21305 16.0911 6.31131 17.2034 6.31131C18.3158 6.31131 19.2175 7.21305 19.2175 8.32541C19.2175 9.43777 18.3158 10.3395 17.2034 10.3395C16.0911 10.3395 15.1893 9.43777 15.1893 8.32541Z" fill="black"/>
</svg>
